<svg width="654.839990234375px" height="122.63999023437499px" xmlns="http://www.w3.org/2000/svg" viewBox="-77.41999511718751 13.680004882812504 654.839990234375 122.63999023437499" style="background: none;" preserveAspectRatio="xMidYMid"><defs><linearGradient id="editing-outline-gradient" x1="-0.41354545764260087" x2="1.4135454576426008" y1="0.09326335692419985" y2="0.9067366430758002"><stop offset="0" stop-color="#ae4725"></stop><stop offset="1" stop-color="#4139ff"></stop></linearGradient><filter id="editing-outline" x="-100%" y="-100%" width="300%" height="300%"><feMorphology in="SourceGraphic" operator="dilate" radius="1" result="outline"></feMorphology><feComposite operator="out" in="outline" in2="SourceAlpha"></feComposite></filter></defs><g filter="url(#editing-outline)"><g transform="translate(17.715005040168762, 104.47000122070312)"><path d="M14.34 0L0.38 0L8.51-42.24L22.59-42.24L14.34 0ZM70.08 1.28L70.08 1.28L70.08 1.28Q62.34 1.28 62.34-4.74L62.34-4.74L62.34-4.74Q62.34-7.36 63.46-12.45L63.46-12.45L63.46-12.45Q64.58-17.54 64.96-19.58L64.96-19.58L64.96-19.58Q65.86-24.26 65.86-25.73L65.86-25.73L65.86-25.73Q65.86-28.99 63.42-28.99L63.42-28.99L63.42-28.99Q61.82-28.99 60.29-26.78L60.29-26.78L60.29-26.78Q58.75-24.58 58.05-20.16L58.05-20.16L54.08 0L41.60 1.28L45.06-16.13L45.06-16.13Q45.63-19.01 46.14-22.27L46.14-22.27L46.14-22.27Q46.66-25.54 46.66-26.05L46.66-26.05L46.66-26.05Q46.66-28.99 44.48-28.99L44.48-28.99L44.48-28.99Q43.01-28.99 41.41-26.82L41.41-26.82L41.41-26.82Q39.81-24.64 38.91-20.16L38.91-20.16L35.01 0L22.40 1.28L29.12-32.64L39.55-33.92L38.46-27.46L38.46-27.46Q40.13-30.91 43.20-32.42L43.20-32.42L43.20-32.42Q46.27-33.92 51.07-33.92L51.07-33.92L51.07-33.92Q53.82-33.92 55.62-32.58L55.62-32.58L55.62-32.58Q57.41-31.23 57.98-29.06L57.98-29.06L57.98-29.06Q59.07-31.30 61.86-32.61L61.86-32.61L61.86-32.61Q64.64-33.92 68.06-33.92L68.06-33.92L68.06-33.92Q71.49-33.92 73.18-33.18L73.18-33.18L73.18-33.18Q74.88-32.45 75.90-31.23L75.90-31.23L75.90-31.23Q77.63-28.99 77.63-24.90L77.63-24.90L77.63-24.90Q77.63-20.86 75.90-12.48L75.90-12.48L75.90-12.48Q75.01-8.38 75.01-6.88L75.01-6.88L75.01-6.88Q75.01-5.38 75.87-4.48L75.87-4.48L75.87-4.48Q76.74-3.58 78.02-3.46L78.02-3.46L78.02-3.46Q77.38-1.28 75.17 0L75.17 0L75.17 0Q72.96 1.28 70.08 1.28ZM85.73-1.92L85.73-1.92L85.73-1.92Q84.22-3.58 83.55-6.21L83.55-6.21L83.55-6.21Q82.88-8.83 82.88-13.12L82.88-13.12L82.88-13.12Q82.88-17.41 84.35-21.31L84.35-21.31L84.35-21.31Q85.82-25.22 88.51-28.03L88.51-28.03L88.51-28.03Q94.02-33.92 103.10-33.92L103.10-33.92L103.10-33.92Q106.37-33.92 108.74-32.83L108.74-32.83L119.68-33.92L114.94-8.96L114.94-8.96Q114.75-8.19 114.75-6.78L114.75-6.78L114.75-6.78Q114.75-5.38 115.62-4.48L115.62-4.48L115.62-4.48Q116.48-3.58 117.76-3.46L117.76-3.46L117.76-3.46Q117.12-1.28 114.78 0L114.78 0L114.78 0Q112.45 1.28 109.82 1.28L109.82 1.28L109.82 1.28Q107.20 1.28 105.44 0.29L105.44 0.29L105.44 0.29Q103.68-0.70 103.17-2.37L103.17-2.37L103.17-2.37Q102.14-0.77 99.97 0.26L99.97 0.26L99.97 0.26Q97.79 1.28 94.88 1.28L94.88 1.28L94.88 1.28Q91.97 1.28 89.60 0.51L89.60 0.51L89.60 0.51Q87.23-0.26 85.73-1.92ZM99.23-27.90L99.23-27.90L99.23-27.90Q98.50-26.75 97.86-24.80L97.86-24.80L97.86-24.80Q97.22-22.85 96.16-17.63L96.16-17.63L96.16-17.63Q95.10-12.42 95.10-8.70L95.10-8.70L95.10-8.70Q95.10-4.99 95.68-3.90L95.68-3.90L95.68-3.90Q96.26-2.82 97.28-2.82L97.28-2.82L97.28-2.82Q99.33-2.82 100.83-4.77L100.83-4.77L100.83-4.77Q102.34-6.72 102.91-10.18L102.91-10.18L106.30-28.93L106.30-28.93Q104.96-30.08 103.39-30.08L103.39-30.08L103.39-30.08Q101.82-30.08 100.90-29.57L100.90-29.57L100.90-29.57Q99.97-29.06 99.23-27.90ZM127.42-26.75L127.42-26.75L127.42-26.75Q129.60-29.82 132.90-31.87L132.90-31.87L132.90-31.87Q136.19-33.92 140.22-33.92L140.22-33.92L140.22-33.92Q144.26-33.92 146.18-32.64L146.18-32.64L158.72-33.92L154.37-9.34L154.37-9.34Q152.13 3.20 147.39 8.13L147.39 8.13L147.39 8.13Q142.85 12.80 134.02 12.80L134.02 12.80L134.02 12.80Q127.30 12.80 123.46 10.69L123.46 10.69L123.46 10.69Q119.62 8.58 119.62 5.06L119.62 5.06L119.62 5.06Q119.62 2.43 121.60 0.93L121.60 0.93L121.60 0.93Q123.58-0.58 126.66-0.58L126.66-0.58L126.66-0.58Q129.34-0.58 131.39 0.64L131.39 0.64L131.39 0.64Q132.61 1.28 133.18 2.18L133.18 2.18L133.18 2.18Q131.71 3.46 131.71 5.57L131.71 5.57L131.71 5.57Q131.71 8.32 134.27 8.32L134.27 8.32L134.27 8.32Q138.56 8.32 140.99-1.79L140.99-1.79L140.99-1.79Q141.70-4.54 142.27-7.30L142.27-7.30L142.27-7.30Q139.39-3.78 132.86-3.78L132.86-3.78L132.86-3.78Q128.32-3.78 125.70-5.95L125.70-5.95L125.70-5.95Q123.07-8.13 123.07-13.25L123.07-13.25L123.07-13.25Q123.07-16.45 124.16-20.06L124.16-20.06L124.16-20.06Q125.25-23.68 127.42-26.75ZM135.74-13.06L135.74-13.06L135.74-13.06Q135.74-8.70 137.98-8.70L137.98-8.70L137.98-8.70Q139.52-8.70 140.99-10.37L140.99-10.37L140.99-10.37Q142.14-11.71 142.59-13.70L142.59-13.70L145.86-30.14L145.86-30.14Q145.54-30.21 145.22-30.34L145.22-30.34L145.22-30.34Q144.58-30.59 143.74-30.59L143.74-30.59L143.74-30.59Q139.84-30.59 137.54-24.19L137.54-24.19L137.54-24.19Q135.74-19.20 135.74-13.06ZM187.14-10.82L187.14-10.82L187.14-10.82Q188.74-9.73 188.74-7.33L188.74-7.33L188.74-7.33Q188.74-4.93 187.52-3.39L187.52-3.39L187.52-3.39Q186.30-1.86 184.32-0.83L184.32-0.83L184.32-0.83Q180.22 1.28 175.81 1.28L175.81 1.28L175.81 1.28Q171.39 1.28 168.80 0.32L168.80 0.32L168.80 0.32Q166.21-0.64 164.48-2.43L164.48-2.43L164.48-2.43Q161.09-5.82 161.09-12.03L161.09-12.03L161.09-12.03Q161.09-21.70 166.34-27.58L166.34-27.58L166.34-27.58Q171.97-33.92 181.76-33.92L181.76-33.92L181.76-33.92Q187.84-33.92 190.85-31.36L190.85-31.36L190.85-31.36Q193.09-29.44 193.09-26.30L193.09-26.30L193.09-26.30Q193.09-15.04 173.63-15.04L173.63-15.04L173.63-15.04Q173.38-13.38 173.38-11.97L173.38-11.97L173.38-11.97Q173.38-9.02 174.69-7.90L174.69-7.90L174.69-7.90Q176-6.78 178.43-6.78L178.43-6.78L178.43-6.78Q180.86-6.78 183.46-7.90L183.46-7.90L183.46-7.90Q186.05-9.02 187.14-10.82ZM174.08-17.79L174.08-17.79L174.08-17.79Q178.62-17.79 181.25-20.61L181.25-20.61L181.25-20.61Q183.87-23.30 183.87-27.58L183.87-27.58L183.87-27.58Q183.87-29.06 183.33-29.86L183.33-29.86L183.33-29.86Q182.78-30.66 181.70-30.66L181.70-30.66L181.70-30.66Q180.61-30.66 179.68-30.24L179.68-30.24L179.68-30.24Q178.75-29.82 177.79-28.42L177.79-28.42L177.79-28.42Q175.42-25.22 174.08-17.79ZM214.40-22.46L214.40-22.46L214.40-22.46Q215.30-24.83 215.30-26.88L215.30-26.88L215.30-26.88Q215.30-30.66 212.22-30.66L212.22-30.66L212.22-30.66Q210.62-30.66 209.31-29.22L209.31-29.22L209.31-29.22Q208-27.78 208-25.98L208-25.98L208-25.98Q208-24.70 209.02-23.68L209.02-23.68L209.02-23.68Q210.50-22.27 214.27-19.97L214.27-19.97L214.27-19.97Q218.05-17.66 219.49-15.78L219.49-15.78L219.49-15.78Q220.93-13.89 220.93-11.30L220.93-11.30L220.93-11.30Q220.93-8.70 219.68-6.34L219.68-6.34L219.68-6.34Q218.43-3.97 216.19-2.30L216.19-2.30L216.19-2.30Q211.39 1.28 203.71 1.28L203.71 1.28L203.71 1.28Q199.55 1.28 196.35-0.90L196.35-0.90L196.35-0.90Q193.15-3.01 193.15-5.50L193.15-5.50L193.15-5.50Q193.15-8 194.98-9.47L194.98-9.47L194.98-9.47Q196.80-10.94 199.49-10.94L199.49-10.94L199.49-10.94Q202.18-10.94 203.84-9.92L203.84-9.92L203.84-9.92Q203.01-7.81 203.01-6.40L203.01-6.40L203.01-6.40Q203.01-2.18 206.59-2.18L206.59-2.18L206.59-2.18Q208.13-2.18 209.15-3.14L209.15-3.14L209.15-3.14Q210.18-4.10 210.18-5.76L210.18-5.76L210.18-5.76Q210.18-9.02 204.67-12.48L204.67-12.48L204.67-12.48Q200.19-15.42 199.17-16.58L199.17-16.58L199.17-16.58Q197.44-18.62 197.44-21.18L197.44-21.18L197.44-21.18Q197.44-23.74 198.66-26.18L198.66-26.18L198.66-26.18Q199.87-28.61 202.11-30.34L202.11-30.34L202.11-30.34Q206.78-33.92 214.91-33.92L214.91-33.92L214.91-33.92Q219.07-33.92 221.54-32.26L221.54-32.26L221.54-32.26Q224-30.59 224-27.78L224-27.78L224-27.78Q224-24.96 222.30-23.36L222.30-23.36L222.30-23.36Q220.61-21.76 217.54-21.76L217.54-21.76L217.54-21.76Q215.42-21.76 214.40-22.46ZM244.10-26.75L244.10-26.75L244.10-26.75Q246.27-29.82 249.57-31.87L249.57-31.87L249.57-31.87Q252.86-33.92 256.90-33.92L256.90-33.92L256.90-33.92Q260.93-33.92 262.85-32.64L262.85-32.64L275.39-33.92L271.04-9.34L271.04-9.34Q268.80 3.20 264.06 8.13L264.06 8.13L264.06 8.13Q259.52 12.80 250.69 12.80L250.69 12.80L250.69 12.80Q243.97 12.80 240.13 10.69L240.13 10.69L240.13 10.69Q236.29 8.58 236.29 5.06L236.29 5.06L236.29 5.06Q236.29 2.43 238.27 0.93L238.27 0.93L238.27 0.93Q240.26-0.58 243.33-0.58L243.33-0.58L243.33-0.58Q246.02-0.58 248.06 0.64L248.06 0.64L248.06 0.64Q249.28 1.28 249.86 2.18L249.86 2.18L249.86 2.18Q248.38 3.46 248.38 5.57L248.38 5.57L248.38 5.57Q248.38 8.32 250.94 8.32L250.94 8.32L250.94 8.32Q255.23 8.32 257.66-1.79L257.66-1.79L257.66-1.79Q258.37-4.54 258.94-7.30L258.94-7.30L258.94-7.30Q256.06-3.78 249.54-3.78L249.54-3.78L249.54-3.78Q244.99-3.78 242.37-5.95L242.37-5.95L242.37-5.95Q239.74-8.13 239.74-13.25L239.74-13.25L239.74-13.25Q239.74-16.45 240.83-20.06L240.83-20.06L240.83-20.06Q241.92-23.68 244.10-26.75ZM252.42-13.06L252.42-13.06L252.42-13.06Q252.42-8.70 254.66-8.70L254.66-8.70L254.66-8.70Q256.19-8.70 257.66-10.37L257.66-10.37L257.66-10.37Q258.82-11.71 259.26-13.70L259.26-13.70L262.53-30.14L262.53-30.14Q262.21-30.21 261.89-30.34L261.89-30.34L261.89-30.34Q261.25-30.59 260.42-30.59L260.42-30.59L260.42-30.59Q256.51-30.59 254.21-24.19L254.21-24.19L254.21-24.19Q252.42-19.20 252.42-13.06ZM280.67-1.92L280.67-1.92L280.67-1.92Q279.17-3.58 278.50-6.21L278.50-6.21L278.50-6.21Q277.82-8.83 277.82-13.12L277.82-13.12L277.82-13.12Q277.82-17.41 279.30-21.31L279.30-21.31L279.30-21.31Q280.77-25.22 283.46-28.03L283.46-28.03L283.46-28.03Q288.96-33.92 298.05-33.92L298.05-33.92L298.05-33.92Q301.31-33.92 303.68-32.83L303.68-32.83L314.62-33.92L309.89-8.96L309.89-8.96Q309.70-8.19 309.70-6.78L309.70-6.78L309.70-6.78Q309.70-5.38 310.56-4.48L310.56-4.48L310.56-4.48Q311.42-3.58 312.70-3.46L312.70-3.46L312.70-3.46Q312.06-1.28 309.73 0L309.73 0L309.73 0Q307.39 1.28 304.77 1.28L304.77 1.28L304.77 1.28Q302.14 1.28 300.38 0.29L300.38 0.29L300.38 0.29Q298.62-0.70 298.11-2.37L298.11-2.37L298.11-2.37Q297.09-0.77 294.91 0.26L294.91 0.26L294.91 0.26Q292.74 1.28 289.82 1.28L289.82 1.28L289.82 1.28Q286.91 1.28 284.54 0.51L284.54 0.51L284.54 0.51Q282.18-0.26 280.67-1.92ZM294.18-27.90L294.18-27.90L294.18-27.90Q293.44-26.75 292.80-24.80L292.80-24.80L292.80-24.80Q292.16-22.85 291.10-17.63L291.10-17.63L291.10-17.63Q290.05-12.42 290.05-8.70L290.05-8.70L290.05-8.70Q290.05-4.99 290.62-3.90L290.62-3.90L290.62-3.90Q291.20-2.82 292.22-2.82L292.22-2.82L292.22-2.82Q294.27-2.82 295.78-4.77L295.78-4.77L295.78-4.77Q297.28-6.72 297.86-10.18L297.86-10.18L301.25-28.93L301.25-28.93Q299.90-30.08 298.34-30.08L298.34-30.08L298.34-30.08Q296.77-30.08 295.84-29.57L295.84-29.57L295.84-29.57Q294.91-29.06 294.18-27.90ZM333.38-3.52L333.38-3.52L333.38-3.52Q331.39 1.28 325.06 1.28L325.06 1.28L325.06 1.28Q321.86 1.28 319.81-0.96L319.81-0.96L319.81-0.96Q318.14-2.82 318.14-4.93L318.14-4.93L318.14-4.93Q318.14-9.73 320.38-20.22L320.38-20.22L325.06-44.80L338.05-46.08L331.84-13.70L331.84-13.70Q330.75-8.96 330.75-7.30L330.75-7.30L330.75-7.30Q330.75-3.65 333.38-3.52ZM354.11-3.52L354.11-3.52L354.11-3.52Q352.13 1.28 345.79 1.28L345.79 1.28L345.79 1.28Q342.59 1.28 340.54-0.96L340.54-0.96L340.54-0.96Q338.88-2.82 338.88-4.93L338.88-4.93L338.88-4.93Q338.88-9.73 341.12-20.22L341.12-20.22L345.79-44.80L358.78-46.08L352.58-13.70L352.58-13.70Q351.49-8.96 351.49-7.30L351.49-7.30L351.49-7.30Q351.49-3.65 354.11-3.52ZM385.47-10.82L385.47-10.82L385.47-10.82Q387.07-9.73 387.07-7.33L387.07-7.33L387.07-7.33Q387.07-4.93 385.86-3.39L385.86-3.39L385.86-3.39Q384.64-1.86 382.66-0.83L382.66-0.83L382.66-0.83Q378.56 1.28 374.14 1.28L374.14 1.28L374.14 1.28Q369.73 1.28 367.14 0.32L367.14 0.32L367.14 0.32Q364.54-0.64 362.82-2.43L362.82-2.43L362.82-2.43Q359.42-5.82 359.42-12.03L359.42-12.03L359.42-12.03Q359.42-21.70 364.67-27.58L364.67-27.58L364.67-27.58Q370.30-33.92 380.10-33.92L380.10-33.92L380.10-33.92Q386.18-33.92 389.18-31.36L389.18-31.36L389.18-31.36Q391.42-29.44 391.42-26.30L391.42-26.30L391.42-26.30Q391.42-15.04 371.97-15.04L371.97-15.04L371.97-15.04Q371.71-13.38 371.71-11.97L371.71-11.97L371.71-11.97Q371.71-9.02 373.02-7.90L373.02-7.90L373.02-7.90Q374.34-6.78 376.77-6.78L376.77-6.78L376.77-6.78Q379.20-6.78 381.79-7.90L381.79-7.90L381.79-7.90Q384.38-9.02 385.47-10.82ZM372.42-17.79L372.42-17.79L372.42-17.79Q376.96-17.79 379.58-20.61L379.58-20.61L379.58-20.61Q382.21-23.30 382.21-27.58L382.21-27.58L382.21-27.58Q382.21-29.06 381.66-29.86L381.66-29.86L381.66-29.86Q381.12-30.66 380.03-30.66L380.03-30.66L380.03-30.66Q378.94-30.66 378.02-30.24L378.02-30.24L378.02-30.24Q377.09-29.82 376.13-28.42L376.13-28.42L376.13-28.42Q373.76-25.22 372.42-17.79ZM413.63-17.98L413.63-17.98L413.63-17.98Q415.94-22.08 415.94-26.24L415.94-26.24L415.94-26.24Q415.94-28.99 413.95-28.99L413.95-28.99L413.95-28.99Q412.42-28.99 410.82-26.37L410.82-26.37L410.82-26.37Q409.15-23.74 408.64-20.35L408.64-20.35L405.31 0L392.06 1.28L398.59-32.64L409.15-33.92L408.00-27.46L408.00-27.46Q411.14-33.92 418.18-33.92L418.18-33.92L418.18-33.92Q421.89-33.92 423.90-32L423.90-32L423.90-32Q425.92-30.08 425.92-26.14L425.92-26.14L425.92-26.14Q425.92-22.21 423.33-19.71L423.33-19.71L423.33-19.71Q420.74-17.22 416.32-17.22L416.32-17.22L416.32-17.22Q414.40-17.22 413.63-17.98ZM447.30-7.23L447.30-7.23L447.30-7.23Q443.97-3.78 437.89-3.78L437.89-3.78L437.89-3.78Q430.27-3.78 428.67-9.34L428.67-9.34L428.67-9.34Q428.16-11.01 428.16-12.86L428.16-12.86L428.16-12.86Q428.16-14.72 428.54-16.64L428.54-16.64L431.55-32.64L444.54-33.92L441.02-15.30L441.02-15.30Q440.90-14.46 440.70-13.57L440.70-13.57L440.70-13.57Q440.51-12.67 440.51-11.74L440.51-11.74L440.51-11.74Q440.51-10.82 440.83-10.21L440.83-10.21L440.83-10.21Q441.15-9.60 441.60-9.22L441.60-9.22L441.60-9.22Q442.37-8.70 443.74-8.70L443.74-8.70L443.74-8.70Q445.12-8.70 446.30-10.37L446.30-10.37L446.30-10.37Q447.49-12.03 448.06-14.91L448.06-14.91L451.58-32.64L464.19-33.92L459.39-8.77L459.39-8.77Q457.02 3.52 452.16 8.38L452.16 8.38L452.16 8.38Q449.66 10.88 446.43 11.87L446.43 11.87L446.43 11.87Q443.20 12.86 439.04 12.86L439.04 12.86L439.04 12.86Q432.32 12.86 428.48 10.75L428.48 10.75L428.48 10.75Q424.64 8.64 424.64 5.12L424.64 5.12L424.64 5.12Q424.64 2.50 426.62 0.99L426.62 0.99L426.62 0.99Q428.61-0.51 431.68-0.51L431.68-0.51L431.68-0.51Q434.37-0.51 436.42 0.64L436.42 0.64L436.42 0.64Q437.63 1.34 438.21 2.24L438.21 2.24L438.21 2.24Q436.74 3.52 436.74 5.63L436.74 5.63L436.74 5.63Q436.74 8.45 439.30 8.45L439.30 8.45L439.30 8.45Q443.52 8.45 445.95-1.28L445.95-1.28L445.95-1.28Q446.66-4.16 447.30-7.23Z" fill="url(#editing-outline-gradient)"></path></g></g><style>text {
  font-size: 64px;
  font-family: Arial Black;
  dominant-baseline: central;
  text-anchor: middle;
}</style></svg>